<?xml version="1.0" standalone="no"?>
<!DOCTYPE svg PUBLIC "-//W3C//DTD SVG 20010904//EN"
 "http://www.w3.org/TR/2001/REC-SVG-20010904/DTD/svg10.dtd">
<svg version="1.0" xmlns="http://www.w3.org/2000/svg"
 width="700.000000pt" height="700.000000pt" viewBox="0 0 700.000000 700.000000"
 preserveAspectRatio="xMidYMid meet">
<metadata>
Created by potrace 1.14, written by Peter Selinger 2001-2017
</metadata>
<g transform="translate(0.000000,700.000000) scale(0.100000,-0.100000)"
fill="#000000" stroke="none">
<path d="M4700 6575 c0 -6 27 -80 61 -165 34 -85 76 -193 93 -240 28 -71 165
-423 361 -925 24 -60 59 -150 78 -200 19 -49 62 -160 95 -245 33 -85 103 -265
156 -400 52 -135 122 -313 154 -396 43 -108 93 -210 177 -355 65 -112 167
-289 228 -394 60 -104 121 -210 135 -235 14 -25 72 -126 130 -225 57 -99 115
-200 129 -225 14 -25 49 -85 78 -135 29 -49 135 -232 235 -405 100 -173 184
-317 186 -319 2 -2 4 460 4 1027 0 824 -3 1033 -13 1044 -12 13 -157 188 -207
252 -22 28 -296 364 -550 676 -52 64 -142 174 -200 246 -57 71 -112 138 -122
149 -29 35 -215 264 -239 296 -13 17 -29 36 -36 43 -6 7 -42 51 -80 97 -37 47
-135 167 -218 268 -156 191 -253 311 -465 572 -144 178 -170 208 -170 194z"/>
<path d="M2400 5765 c0 -5 153 -188 385 -460 23 -27 169 -200 324 -383 l282
-334 -63 -76 c-34 -43 -77 -92 -94 -111 -18 -18 -41 -59 -52 -90 -11 -31 -52
-148 -92 -260 -39 -112 -73 -208 -76 -212 -2 -4 -44 18 -92 50 -87 57 -391
253 -437 281 -34 21 -515 330 -647 415 -230 149 -290 186 -294 182 -2 -2 57
-62 132 -133 76 -71 154 -145 174 -164 20 -19 104 -98 185 -175 82 -77 165
-156 185 -175 20 -19 75 -71 122 -115 374 -352 590 -560 556 -536 -13 10 -18
9 -25 -2 -8 -14 -47 -60 -183 -217 -41 -47 -97 -113 -125 -145 -27 -32 -57
-66 -65 -75 -8 -8 -67 -76 -130 -150 -63 -74 -117 -137 -120 -140 -3 -3 -36
-41 -74 -85 -103 -120 -160 -186 -171 -199 -6 -6 -35 -40 -65 -76 -30 -35 -63
-73 -72 -84 -17 -18 -13 -21 103 -97 66 -44 124 -79 128 -79 5 0 41 35 81 78
41 42 140 147 221 232 81 85 164 173 184 195 21 22 108 114 194 205 224 235
299 315 341 360 20 21 41 36 47 32 6 -4 77 -70 158 -147 81 -77 165 -156 185
-175 247 -233 350 -331 381 -360 20 -19 69 -66 110 -104 102 -96 371 -350 498
-472 187 -177 202 -190 442 -351 693 -464 847 -568 846 -569 -2 -2 -160 25
-242 40 -60 12 -201 36 -240 41 -22 4 -47 8 -55 10 -8 3 -32 7 -54 11 -21 3
-48 8 -60 10 -11 2 -61 11 -111 20 -49 8 -101 17 -115 20 -14 2 -41 7 -60 10
-35 5 -62 10 -370 64 -91 16 -178 31 -195 34 -16 3 -70 12 -120 21 -83 15
-338 59 -395 69 -14 3 -119 21 -235 41 -115 20 -311 54 -435 76 -124 22 -241
42 -260 45 -19 3 -79 14 -133 23 -54 10 -100 15 -102 11 -2 -3 51 -34 118 -68
67 -34 176 -91 242 -125 253 -132 424 -222 525 -275 58 -30 150 -78 205 -107
112 -59 227 -119 455 -238 85 -45 209 -109 275 -144 66 -35 166 -86 222 -115
56 -29 101 -54 99 -55 -1 -1 -179 65 -396 148 -217 83 -476 181 -575 219 -99
37 -353 134 -565 215 -212 81 -491 187 -620 236 -129 49 -242 92 -250 96 -8 3
-19 7 -25 9 -5 1 -111 42 -235 89 -124 48 -290 111 -370 141 -80 31 -181 69
-225 86 -44 16 -89 34 -100 39 -18 7 -246 94 -555 210 -58 22 -114 44 -125 49
-42 19 -318 120 -329 120 -13 0 0 -12 194 -175 78 -66 150 -127 160 -135 10
-8 39 -33 66 -55 26 -22 52 -45 58 -50 6 -6 66 -57 134 -114 68 -56 134 -113
147 -124 13 -12 34 -31 47 -41 13 -11 55 -46 93 -79 39 -32 81 -68 95 -80 14
-11 68 -57 120 -102 52 -44 122 -103 155 -130 33 -28 62 -52 65 -55 3 -4 48
-42 100 -87 101 -85 94 -82 1466 -772 l241 -121 1742 0 1741 0 0 845 0 845
-24 38 c-13 20 -89 148 -170 283 l-146 246 -223 184 c-122 101 -231 191 -242
201 -11 9 -103 85 -205 169 -102 83 -205 169 -230 190 -25 20 -115 95 -200
165 -85 70 -191 157 -235 194 -140 115 -259 214 -310 255 -27 22 -65 54 -84
71 -20 17 -79 66 -131 109 -52 42 -95 81 -95 86 0 5 33 42 72 83 l73 73 70
233 c40 129 72 245 72 259 0 14 -25 112 -57 216 -31 105 -58 199 -60 211 -15
106 -65 248 -151 428 -17 36 -17 36 1 36 21 0 19 15 -7 63 -21 35 -38 47 -162
108 -77 38 -146 69 -153 69 -8 0 -64 -19 -124 -41 -61 -23 -119 -42 -129 -43
-24 -1 -64 -59 -121 -171 -73 -144 -131 -250 -141 -256 -5 -3 -10 -10 -10 -15
0 -9 -28 -40 -201 -226 l-99 -108 -62 53 c-33 29 -124 105 -201 168 -77 62
-145 118 -151 124 -6 5 -68 57 -139 115 -213 175 -508 420 -535 444 -37 32
-90 68 -90 61z m1817 -647 c-3 -8 -6 -5 -6 6 -1 11 2 17 5 13 3 -3 4 -12 1
-19z m234 -1785 c96 -113 179 -211 184 -217 6 -6 42 -50 82 -97 39 -48 78 -93
85 -100 7 -8 58 -68 113 -134 55 -66 104 -125 110 -131 5 -6 30 -35 55 -64 25
-29 73 -87 108 -127 66 -79 79 -102 35 -62 -15 13 -32 29 -38 34 -6 6 -49 34
-96 63 -46 29 -118 75 -159 102 -89 58 -235 151 -258 165 -9 6 -42 26 -72 46
-71 47 -236 153 -317 204 -34 22 -146 94 -248 159 l-185 119 32 20 c98 60 384
227 389 227 3 0 84 -93 180 -207z"/>
</g>
</svg>
