<?xml version="1.0" encoding="UTF-8"?>
<!-- Generated by Pixelmator Pro 3.4.3 -->
<svg width="2000" height="2000" viewBox="0 0 2000 2000" xmlns="http://www.w3.org/2000/svg">
    <path id="Path" fill="#000000" fill-rule="evenodd" stroke="#000000" stroke-width="3" d="M 826 1007 L 531 1349 L 600 1394 L 913 1064 L 791 1116"/>
    <path id="path1" fill="#d5d5d5" fill-rule="evenodd" stroke="#000000" stroke-width="3" d="M 2088 1035 L 1343 120 L 1646 898 L 2113 1707"/>
    <path id="path2" fill="#d5d5d5" fill-rule="evenodd" stroke="#000000" stroke-width="3" d="M 1905 1359 L 685 351 L 1509 1326 L 2113 1767 L 2113 1707"/>
    <path id="path3" fill="#d5d5d5" fill-rule="evenodd" stroke="#000000" stroke-width="3" d="M 1515 1931 L 106 1394 L 546 1767 L 2046 2524 L 2070 2239 L 1515 1931 Z"/>
    <path id="v" fill="#000000" fill-rule="evenodd" stroke="#000000" stroke-width="3" d="M 1213 516 L 1198 563 L 1133 605 L 1182 721 L 1199 830 L 1230 951 L 1342 843 L 1390 750 L 1426 704 L 1394 594 L 1316 508 L 1244 509"/>
    <path id="path4" fill="#000000" fill-rule="evenodd" stroke="#000000" stroke-width="3" d="M 1340 423 L 1258 383 L 1182 411 L 1279 473"/>
    <path id="path5" fill="#000000" fill-rule="evenodd" stroke="#000000" stroke-width="3" d="M 1159 442 L 1279 463 L 1246 508 L 1158 545 L 1111 532"/>
    <path id="path6" fill="#000000" fill-rule="evenodd" stroke="#000000" stroke-width="3" d="M 1279 463 L 1340 442 L 1384 545 L 1279 508"/>
    <path id="path7" fill="#000000" fill-rule="evenodd" stroke="#000000" stroke-width="3" d="M 1111 535 L 1000 655 L 1133 601"/>
    <path id="path8" fill="#ffffff" fill-rule="evenodd" stroke="#000000" stroke-width="3" d="M 1133 600 L 1000 655 L 915 756 L 860 913 L 1088 1064 L 1279 951 L 1384 846 L 1426 708 L 1232 951 L 1182 729 L 1195 729"/>
    <path id="path9" fill="#ffffff" fill-rule="evenodd" stroke="#000000" stroke-width="3" d="M 1332 527 L 1392 589 L 1384 545"/>
    <path id="path10" fill="#ffffff" fill-rule="evenodd" stroke="#000000" stroke-width="3" d="M 1293 463 L 1340 423 L 1355 450"/>
    <path id="path11" fill="#ffffff" fill-rule="evenodd" stroke="#000000" stroke-width="3" d="M 1261 463 L 1182 407 L 1158 442"/>
    <path id="path12" fill="#ffffff" fill-rule="evenodd" stroke="#000000" stroke-width="3" d="M 1279 473 L 1241 508 L 1279 545 L 1307 527"/>
    <path id="path13" fill="#ffffff" fill-rule="evenodd" stroke="#000000" stroke-width="3" d="M 827 1007 L 790 1115 L 895 1068"/>
    <path id="path14" fill="#ffffff" fill-rule="evenodd" stroke="#000000" stroke-width="3" d="M 1206 527 L 1157 545 L 1111 531 L 1133 600 L 1195 563"/>
    <path id="path15" fill="#d5d5d5" fill-rule="evenodd" stroke="#000000" stroke-width="3" d="M 1483 1307 L 440 637 L 1343 1491 L 2073 1981 L 2113 1767"/>
    <path id="path16" fill="#d5d5d5" fill-rule="evenodd" stroke="#000000" stroke-width="3" d="M 1671 1707 L 743 1545 L 2071 2239 L 2113 1981 L 2113 1981 L 1671 1707 Z"/>
</svg>
