<?xml version="1.0" encoding="UTF-8"?>
<!-- Generated by Pixelmator Pro 3.4.3 -->
<svg width="2000" height="1900" viewBox="0 0 2000 1900" xmlns="http://www.w3.org/2000/svg">
    <path id="Path" fill="#d5d5d5" fill-rule="evenodd" stroke="#000000" stroke-width="3" d="M 2082 915 L 1337 0 L 1640 778 L 2107 1587"/>
    <path id="path1" fill="#d5d5d5" fill-rule="evenodd" stroke="#000000" stroke-width="3" d="M 1899 1239 L 679 231 L 1503 1206 L 2107 1647 L 2107 1587"/>
    <path id="path2" fill="#d5d5d5" fill-rule="evenodd" stroke="#000000" stroke-width="3" d="M 1477 1187 L 434 517 L 1337 1371 L 2067 1861 L 2107 1647"/>
    <path id="path3" fill="#d5d5d5" fill-rule="evenodd" stroke="#000000" stroke-width="3" d="M 1665 1587 L 737.000061 1425 L 2065 2119 L 2107 1861"/>
    <path id="path4" fill="#d5d5d5" fill-rule="evenodd" stroke="#000000" stroke-width="3" d="M 1500 1829 L 100 1274 L 540 1647 L 2040 2404 L 2064 2119"/>
    <path id="path5" fill="#000000" fill-rule="evenodd" stroke="#000000" stroke-width="3" d="M 1207 396 L 1192 443 L 1127 485 L 1185 601 L 1193 710 L 1224 831 L 1336 723 L 1384 630 L 1420 584 L 1388 474 L 1310 388 L 1274 416"/>
    <path id="path6" fill="#000000" fill-rule="evenodd" stroke="#000000" stroke-width="3" d="M 1334 299 L 1252 263 L 1176 291 L 1273 343"/>
    <path id="path7" fill="#000000" fill-rule="evenodd" stroke="#000000" stroke-width="3" d="M 1162 322 L 1273 343 L 1240 388 L 1152 425 L 1105 412"/>
    <path id="path8" fill="#000000" fill-rule="evenodd" stroke="#000000" stroke-width="3" d="M 1273 343 L 1334 322 L 1378 425 L 1273 388"/>
    <path id="path9" fill="#000000" fill-rule="evenodd" stroke="#000000" stroke-width="3" d="M 1105 425 L 994 535 L 1127 481"/>
    <path id="path10" fill="#ffffff" fill-rule="evenodd" stroke="#000000" stroke-width="3" d="M 1127 480 L 994 535 L 909 636 L 854 789 L 1116 944 L 1273 831 L 1378 726 L 1420 588 L 1226 831 L 1176 609 L 1189 609"/>
    <path id="path11" fill="#ffffff" fill-rule="evenodd" stroke="#000000" stroke-width="3" d="M 1334 407 L 1378 462 L 1378 425"/>
    <path id="path12" fill="#ffffff" fill-rule="evenodd" stroke="#000000" stroke-width="3" d="M 1287 343 L 1334 303 L 1356 322"/>
    <path id="path13" fill="#ffffff" fill-rule="evenodd" stroke="#000000" stroke-width="3" d="M 1255 343 L 1176 287 L 1152 322"/>
    <path id="path14" fill="#ffffff" fill-rule="evenodd" stroke="#000000" stroke-width="3" d="M 1273 353 L 1235 388 L 1273 425 L 1301 407"/>
    <path id="path15" fill="#000000" fill-rule="evenodd" stroke="#000000" stroke-width="3" d="M 820 887 L 525 1229 L 594 1274 L 907 944 L 785 996"/>
    <path id="path16" fill="#ffffff" fill-rule="evenodd" stroke="#000000" stroke-width="3" d="M 820 887 L 784 995 L 896 944"/>
    <path id="path17" fill="#ffffff" fill-rule="evenodd" stroke="#000000" stroke-width="3" d="M 1200 407 L 1151 425 L 1105 411 L 1127 480 L 1189 443"/>
</svg>
