<?xml version="1.0" encoding="UTF-8"?>
<!-- Generated by Pixelmator Pro 3.4.3 -->
<svg width="1900" height="1900" viewBox="0 0 1900 1900" xmlns="http://www.w3.org/2000/svg">
    <path id="Path" fill="#d5d5d5" fill-rule="evenodd" stroke="#000000" stroke-width="3" d="M 1982 915 L 1237 0 L 1540 778 L 2007 1587"/>
    <path id="path1" fill="#d5d5d5" fill-rule="evenodd" stroke="#000000" stroke-width="3" d="M 1799 1239 L 579 231 L 1403 1206 L 2007 1647 L 2007 1587"/>
    <path id="path2" fill="#d5d5d5" fill-rule="evenodd" stroke="#000000" stroke-width="3" d="M 1377 1187 L 334 517 L 1237 1371 L 1967 1861 L 2007 1647"/>
    <path id="path3" fill="#d5d5d5" fill-rule="evenodd" stroke="#000000" stroke-width="3" d="M 1565 1587 L 637.000061 1425 L 1965 2119 L 2007 1861"/>
    <path id="path4" fill="#d5d5d5" fill-rule="evenodd" stroke="#000000" stroke-width="3" d="M 1400 1829 L 0 1274 L 440 1647 L 1940 2404 L 1964 2119"/>
    <path id="path5" fill="#000000" fill-rule="evenodd" stroke="#000000" stroke-width="3" d="M 1107 396 L 1092 443 L 1027 485 L 1085 601 L 1093 710 L 1124 831 L 1236 723 L 1284 630 L 1320 584 L 1288 474 L 1210 388 L 1174 416"/>
    <path id="path6" fill="#000000" fill-rule="evenodd" stroke="#000000" stroke-width="3" d="M 1234 299 L 1152 263 L 1076 291 L 1173 343"/>
    <path id="path7" fill="#000000" fill-rule="evenodd" stroke="#000000" stroke-width="3" d="M 1062 322 L 1173 343 L 1140 388 L 1052 425 L 1005 412"/>
    <path id="path8" fill="#000000" fill-rule="evenodd" stroke="#000000" stroke-width="3" d="M 1173 343 L 1234 322 L 1278 425 L 1173 388"/>
    <path id="path9" fill="#000000" fill-rule="evenodd" stroke="#000000" stroke-width="3" d="M 1005 425 L 894 535 L 1027 481"/>
    <path id="path10" fill="#ffffff" fill-rule="evenodd" stroke="#000000" stroke-width="3" d="M 1027 480 L 894 535 L 809 636 L 754 789 L 1016 944 L 1173 831 L 1278 726 L 1320 588 L 1126 831 L 1076 609 L 1089 609"/>
    <path id="path11" fill="#ffffff" fill-rule="evenodd" stroke="#000000" stroke-width="3" d="M 1234 407 L 1278 462 L 1278 425"/>
    <path id="path12" fill="#ffffff" fill-rule="evenodd" stroke="#000000" stroke-width="3" d="M 1187 343 L 1234 303 L 1256 322"/>
    <path id="path13" fill="#ffffff" fill-rule="evenodd" stroke="#000000" stroke-width="3" d="M 1155 343 L 1076 287 L 1052 322"/>
    <path id="path14" fill="#ffffff" fill-rule="evenodd" stroke="#000000" stroke-width="3" d="M 1173 353 L 1135 388 L 1173 425 L 1201 407"/>
    <path id="path15" fill="#000000" fill-rule="evenodd" stroke="#000000" stroke-width="3" d="M 720 887 L 425 1229 L 494 1274 L 807 944 L 685 996"/>
    <path id="path16" fill="#ffffff" fill-rule="evenodd" stroke="#000000" stroke-width="3" d="M 720 887 L 684 995 L 796 944"/>
    <path id="path17" fill="#ffffff" fill-rule="evenodd" stroke="#000000" stroke-width="3" d="M 1100 407 L 1051 425 L 1005 411 L 1027 480 L 1089 443"/>
</svg>
